<?xml version="1.0" standalone="no"?>
<!DOCTYPE svg PUBLIC "-//W3C//DTD SVG 20010904//EN"
 "http://www.w3.org/TR/2001/REC-SVG-20010904/DTD/svg10.dtd">
<svg version="1.0" xmlns="http://www.w3.org/2000/svg"
 width="1024.000000pt" height="1024.000000pt" viewBox="0 0 1024.000000 1024.000000"
 preserveAspectRatio="xMidYMid meet">

<g transform="translate(0.000000,1024.000000) scale(0.100000,-0.100000)"
fill="#000000" stroke="none">
<path d="M0 5120 l0 -5120 5120 0 5120 0 0 5120 0 5120 -5120 0 -5120 0 0
-5120z m4240 3234 c24 -62 -56 -258 -160 -389 -92 -118 -143 -167 -260 -254
-116 -87 -156 -109 -263 -147 -39 -15 -98 -39 -129 -55 -69 -35 -202 -73 -192
-56 22 38 68 67 250 157 272 135 412 236 517 375 78 102 133 198 158 274 23
71 49 121 61 121 5 0 13 -12 18 -26z m-429 -15 c31 -58 -72 -310 -193 -471
-83 -109 -120 -141 -393 -340 -107 -78 -138 -94 -275 -143 -124 -44 -178 -74
-219 -120 -30 -34 -35 -53 -45 -152 -10 -104 -83 -190 -201 -237 -97 -39 -169
-48 -231 -29 -29 9 -63 13 -78 9 -30 -7 -56 -52 -56 -96 0 -35 -17 -39 -50
-12 -20 16 -22 24 -16 63 7 46 25 73 66 102 29 20 72 22 149 6 108 -22 247 29
312 115 32 42 37 57 43 123 12 149 71 206 306 299 186 72 289 134 438 259 176
147 313 351 361 536 11 41 22 82 26 92 10 24 42 21 56 -4z m-1691 -204 c0 -2
-5 -27 -11 -55 -13 -61 1 -89 59 -119 51 -26 118 -101 148 -164 31 -68 33
-163 3 -244 -16 -44 -37 -74 -88 -123 -58 -57 -82 -72 -188 -119 -229 -99
-305 -213 -259 -384 33 -121 124 -206 267 -252 104 -33 172 -32 284 2 71 22
111 27 187 28 84 0 99 3 120 21 45 41 155 114 219 145 35 17 92 51 126 75 51
37 69 44 108 44 l46 0 -21 -27 c-32 -41 -107 -94 -201 -143 -87 -44 -239 -146
-239 -159 0 -4 17 -13 38 -20 20 -8 52 -24 71 -37 l33 -22 46 34 c63 49 107
70 207 99 48 14 90 27 95 30 4 3 41 12 81 20 218 45 324 174 278 338 -14 51
-75 110 -135 132 -65 24 -70 30 -54 60 19 36 51 32 126 -17 109 -72 150 -150
142 -273 -4 -65 -9 -79 -45 -130 -63 -88 -175 -161 -295 -191 -35 -8 -103 -24
-153 -34 -84 -18 -235 -82 -235 -100 0 -4 11 -11 24 -14 13 -3 71 -38 130 -77
155 -103 208 -123 331 -123 147 -1 213 23 428 153 31 19 37 20 37 7 0 -24 -73
-92 -132 -123 -102 -53 -164 -74 -256 -85 -163 -21 -280 14 -477 143 -44 29
-104 63 -134 77 -30 14 -95 50 -145 81 -87 53 -94 56 -156 55 -37 0 -96 -10
-135 -22 -93 -28 -218 -45 -274 -37 -111 17 -259 98 -324 177 -58 70 -80 131
-85 229 -4 78 -2 92 23 148 46 101 120 160 307 241 145 63 206 131 229 257 21
113 -17 189 -142 284 l-81 62 4 41 c7 56 34 116 52 116 9 0 16 -2 16 -5z
m2504 -236 c36 -17 23 -29 -30 -29 -106 0 -359 -73 -472 -136 -35 -20 -87 -55
-117 -79 l-53 -44 -16 24 c-15 23 -14 25 40 75 57 51 192 124 289 155 133 42
305 58 359 34z m197 -109 c129 -19 256 -74 332 -146 25 -23 27 -28 15 -41 -13
-12 -23 -9 -74 21 -151 90 -340 129 -520 107 -58 -7 -108 -11 -111 -7 -11 11
7 37 34 47 69 26 216 35 324 19z m-310 -154 c45 -8 113 -31 165 -55 75 -36
101 -55 179 -134 77 -77 100 -109 139 -187 78 -158 104 -337 72 -503 -39 -205
-147 -398 -318 -568 -83 -83 -297 -236 -437 -314 -156 -85 -338 -209 -410
-279 -81 -78 -176 -204 -212 -281 -115 -244 -86 -532 76 -760 160 -224 525
-448 905 -556 156 -44 510 -116 629 -128 365 -38 889 13 1136 110 108 42 304
145 425 224 93 60 309 275 372 371 25 38 60 87 78 109 17 22 38 55 45 72 16
38 45 36 45 -3 0 -32 -70 -161 -137 -252 -160 -217 -284 -317 -603 -486 -202
-106 -406 -166 -710 -207 -128 -17 -589 -18 -695 -1 -376 61 -559 104 -755
179 -359 136 -648 333 -789 537 -64 94 -136 259 -152 351 -28 162 13 366 106
530 106 186 263 326 550 491 379 217 582 401 695 628 160 323 122 645 -104
885 -73 77 -168 140 -253 165 -20 6 -21 4 -16 -34 6 -46 -4 -50 -37 -15 -34
37 -119 59 -202 53 -86 -7 -171 -47 -248 -119 -30 -28 -85 -80 -122 -114 -80
-76 -175 -125 -241 -125 -50 0 -84 24 -51 36 143 51 195 85 331 220 86 86 168
140 243 160 60 17 208 16 301 0z m435 -77 c37 -11 77 -27 88 -34 12 -7 46 -23
76 -36 111 -45 259 -172 274 -235 15 -58 -25 -42 -116 50 -61 60 -91 81 -183
125 -166 79 -173 83 -207 119 -38 39 -28 41 68 11z m-1126 -41 c0 -21 -14 -43
-51 -83 -61 -64 -136 -98 -208 -93 -45 3 -46 4 -46 37 0 35 0 35 60 46 81 15
136 46 181 100 42 49 64 47 64 -7z m530 -30 c-14 -11 -49 -34 -78 -50 -29 -17
-103 -81 -165 -142 -117 -116 -190 -166 -284 -197 -71 -24 -141 -25 -150 -3
-8 23 9 35 64 45 83 16 169 66 257 149 171 164 256 220 336 219 l45 0 -25 -21z
m252 -100 c22 -6 58 -28 81 -49 43 -37 104 -135 93 -147 -4 -3 -28 15 -54 40
-90 86 -105 93 -212 93 -87 0 -100 -3 -150 -30 -30 -17 -95 -69 -145 -117
-116 -112 -164 -148 -250 -191 -84 -42 -175 -67 -245 -67 -50 0 -51 1 -48 27
3 26 7 28 78 39 138 21 264 87 356 187 100 108 207 184 299 213 51 16 147 17
197 2z m-1356 -107 c-6 -42 -49 -105 -95 -140 -32 -24 -42 -26 -130 -26 l-96
0 -32 -64 c-37 -74 -44 -81 -98 -81 -59 0 -74 14 -40 36 15 10 47 48 71 86 60
93 78 103 189 103 112 0 144 19 182 104 24 53 26 55 40 36 9 -13 13 -32 9 -54z
m1951 -70 c72 -57 123 -119 171 -209 36 -68 44 -94 49 -154 l5 -73 -20 20
c-11 11 -34 55 -52 97 -39 96 -90 175 -162 253 -30 33 -60 70 -67 83 -19 36
19 28 76 -17z m-1809 -73 c29 -32 42 -71 42 -126 0 -92 -75 -162 -182 -170
-83 -6 -93 10 -22 38 65 27 109 60 129 101 20 37 19 65 -5 118 -28 62 -6 85
38 39z m1251 -2 c12 -11 21 -22 21 -27 0 -4 -60 -9 -132 -11 -130 -3 -134 -4
-193 -37 -33 -19 -86 -58 -118 -87 -107 -99 -228 -170 -340 -200 -58 -15 -254
-19 -277 -4 -12 7 -12 12 4 29 15 17 31 21 80 21 81 1 200 23 259 49 66 29
168 96 252 167 79 66 132 101 173 114 15 5 77 8 138 7 94 -2 115 -5 133 -21z
m-108 -102 c44 -23 69 -83 69 -172 0 -141 -60 -264 -199 -403 -92 -91 -103
-98 -255 -174 l-160 -80 57 -24 c61 -26 68 -38 37 -66 -24 -21 -56 -15 -120
24 -50 31 -31 32 -192 -13 -32 -9 -58 -21 -58 -26 0 -5 26 -23 58 -39 66 -33
97 -64 88 -86 -11 -30 -34 -26 -98 14 -36 22 -81 47 -102 56 -36 15 -37 15
-118 -27 -79 -41 -108 -68 -73 -68 26 0 158 -65 178 -88 15 -16 16 -24 7 -41
-14 -28 -18 -27 -92 13 -35 19 -91 42 -125 52 l-62 17 -48 -41 c-26 -22 -58
-51 -71 -65 l-23 -25 60 -10 c59 -11 201 -76 201 -92 0 -19 -13 -40 -25 -40
-7 0 -45 15 -84 34 -77 37 -168 54 -200 37 -14 -8 -131 -163 -131 -174 0 -1
46 -2 103 -2 86 -1 109 -4 145 -23 28 -15 42 -29 42 -43 0 -30 -23 -33 -85
-10 -63 24 -110 26 -185 10 -44 -9 -53 -16 -69 -48 -21 -40 -65 -180 -60 -186
3 -2 29 5 59 15 88 31 219 23 242 -13 15 -25 -12 -34 -86 -29 -61 4 -87 0
-141 -19 -101 -35 -105 -42 -105 -159 0 -55 2 -100 4 -100 3 0 47 14 98 31 55
19 116 32 148 33 52 1 55 0 55 -24 0 -20 -6 -26 -40 -32 -138 -28 -207 -52
-237 -82 -15 -14 -15 -21 2 -78 10 -35 26 -89 34 -120 9 -32 20 -58 24 -58 4
0 32 18 62 41 64 48 141 89 169 89 10 0 21 -9 24 -20 6 -22 2 -25 -98 -80 -65
-35 -125 -86 -125 -107 0 -17 107 -184 128 -200 21 -17 32 -16 32 1 0 20 45
72 103 118 47 37 51 38 68 22 11 -9 19 -22 19 -27 0 -5 -41 -49 -92 -98 l-91
-88 74 -82 c40 -44 80 -84 88 -87 10 -4 41 23 93 78 66 72 81 83 96 74 34 -22
24 -43 -53 -118 -42 -41 -75 -80 -73 -86 2 -6 48 -39 103 -74 87 -56 101 -62
110 -48 25 42 132 142 151 142 11 0 30 -13 42 -29 13 -17 58 -46 116 -74 75
-36 96 -51 96 -67 0 -11 -7 -20 -15 -20 -26 0 -84 28 -123 58 -84 66 -114 63
-178 -15 -30 -36 -34 -47 -23 -54 63 -43 321 -155 524 -227 225 -81 523 -154
790 -194 201 -31 223 -32 500 -31 326 1 502 18 722 72 220 54 473 154 636 251
287 171 496 359 655 591 46 68 128 235 157 323 37 111 65 290 65 419 0 123
-29 344 -55 422 -31 93 -102 230 -164 316 -124 173 -255 284 -446 379 -294
145 -601 157 -934 34 -118 -44 -303 -146 -414 -230 -115 -87 -286 -267 -386
-410 -84 -118 -107 -150 -275 -376 -139 -188 -318 -340 -511 -433 -144 -70
-235 -95 -349 -95 -87 0 -196 23 -196 42 0 10 -6 9 125 13 184 5 379 70 538
181 152 106 295 266 492 549 179 257 255 344 458 527 198 178 442 302 712 360
79 17 134 21 265 22 147 0 176 -3 263 -27 190 -51 409 -170 535 -291 70 -67
188 -218 245 -311 76 -128 110 -227 143 -419 22 -130 25 -170 21 -291 -6 -149
-26 -282 -58 -380 -34 -102 -144 -316 -212 -410 -331 -460 -920 -786 -1592
-882 -146 -21 -698 -24 -830 -5 -125 19 -310 50 -370 63 -273 59 -765 227
-965 329 -151 77 -342 195 -409 253 -27 23 -74 64 -105 90 -159 136 -335 426
-393 647 -37 141 -42 326 -13 480 26 140 100 334 170 445 68 110 212 265 323
349 98 74 277 166 451 230 136 51 324 136 410 187 39 24 98 70 131 103 156
157 209 320 157 484 -11 34 -18 62 -15 62 2 0 18 -7 34 -16z m705 -135 c7 -15
28 -71 46 -125 30 -91 33 -109 33 -229 0 -76 -5 -147 -13 -172 -14 -46 -46
-92 -57 -81 -4 4 -2 56 4 115 17 155 2 315 -38 419 -17 44 -31 92 -31 108 0
29 0 29 21 10 12 -10 27 -31 35 -45z m-965 -51 c-42 -69 -144 -148 -254 -198
-157 -70 -366 -82 -559 -30 -28 8 -38 16 -38 31 0 11 7 22 16 26 8 3 71 -2
140 -11 254 -34 442 21 654 192 58 47 75 43 41 -10z m-2025 -74 c22 -33 7 -50
-29 -33 -18 8 -27 20 -27 36 0 32 35 31 56 -3z m4470 -85 c11 -19 -9 -28 -114
-49 -107 -22 -254 -78 -356 -138 -32 -19 -95 -67 -139 -106 -103 -92 -159
-135 -174 -136 -66 -1 140 215 290 305 71 43 211 102 283 119 71 17 200 20
210 5z m-1576 -219 c1 -129 -33 -260 -106 -412 -69 -142 -106 -125 -44 20 44
104 88 274 99 387 6 55 16 118 22 140 l12 40 9 -35 c4 -19 8 -82 8 -140z
m-2476 111 c16 -17 14 -21 -30 -80 -64 -85 -151 -141 -220 -141 -19 0 -24 -5
-24 -24 0 -35 42 -92 66 -88 15 2 46 -24 107 -88 48 -50 87 -96 87 -101 0 -12
-44 -2 -99 24 -59 27 -176 143 -200 198 -21 48 -46 168 -36 177 3 3 19 -2 34
-11 66 -39 140 -11 227 88 32 36 61 65 64 65 4 0 14 -8 24 -19z m4486 -15
c105 -17 203 -54 208 -79 4 -22 -12 -22 -124 3 -113 26 -349 38 -432 21 -32
-6 -135 -34 -227 -61 -92 -28 -179 -50 -194 -50 -25 1 -26 1 -6 16 53 41 226
114 315 133 52 11 104 22 115 24 47 10 267 6 345 -7z m-1173 -33 c2 -6 -53
-67 -122 -135 -122 -119 -192 -208 -259 -333 -56 -105 -78 -113 -51 -19 45
155 165 321 324 446 71 56 100 67 108 41z m-3229 -151 c21 -21 57 -47 81 -59
41 -21 42 -22 20 -33 -29 -16 -95 -7 -128 17 -27 21 -44 67 -35 96 8 25 20 21
62 -21z m4726 -35 c166 -44 336 -139 336 -188 0 -35 -27 -32 -89 11 -92 62
-221 107 -369 130 -70 11 -146 20 -169 20 -63 0 -140 19 -165 41 -23 19 -22
20 167 16 167 -3 202 -7 289 -30z m-4853 -69 c25 -18 73 -46 107 -62 71 -34
83 -52 45 -67 -51 -19 -137 6 -181 54 -23 25 -43 107 -26 107 5 0 30 -15 55
-32z m2316 -67 c-7 -54 -85 -244 -130 -316 -39 -63 -128 -175 -138 -175 -5 0
-13 8 -18 18 -7 14 4 39 55 117 35 55 83 138 105 185 95 198 112 229 122 223
5 -3 7 -26 4 -52z m2593 -101 c60 -11 271 -109 347 -161 109 -75 243 -229 243
-281 0 -17 -2 -17 -27 -4 -16 8 -52 42 -82 76 -109 125 -215 195 -423 280 -83
34 -122 59 -139 92 -9 17 -8 19 8 14 10 -3 43 -10 73 -16z m-2151 -202 c-6
-15 -15 -26 -21 -25 -5 1 -15 -15 -22 -35 -8 -21 -22 -50 -32 -65 l-18 -28 -8
30 c-13 45 -3 77 49 172 l48 85 8 -53 c5 -35 3 -63 -4 -81z m-699 89 c0 -21
-285 -381 -350 -442 -17 -16 -38 -43 -47 -58 -11 -23 -17 -26 -29 -16 -21 17
-17 37 16 88 60 93 305 376 354 409 55 36 56 37 56 19z m2088 -72 c92 -19 269
-100 357 -164 84 -62 175 -151 175 -171 0 -9 -9 -25 -20 -35 -19 -17 -21 -17
-38 -2 -25 22 -31 21 -72 -13 -35 -30 -64 -38 -75 -20 -11 17 13 46 54 65 23
10 41 22 41 26 0 12 -63 68 -113 102 l-40 27 -23 -21 c-12 -11 -32 -40 -45
-64 l-23 -43 24 -21 c14 -11 48 -35 76 -53 37 -24 66 -56 106 -118 72 -110 83
-132 110 -227 30 -107 30 -256 -1 -368 -27 -99 -117 -286 -166 -346 -71 -86
-170 -181 -260 -248 -145 -111 -280 -170 -545 -240 -136 -36 -514 -81 -683
-81 -171 0 -599 62 -632 91 -14 14 147 11 336 -7 362 -33 971 24 1207 112 144
54 291 151 405 269 123 125 207 265 263 435 23 72 27 102 27 195 1 97 -3 121
-31 206 -55 166 -154 283 -304 359 -110 55 -204 74 -341 67 -177 -8 -254 -35
-437 -155 -148 -96 -259 -199 -512 -477 -298 -326 -417 -435 -588 -542 -182
-113 -398 -188 -575 -200 -72 -5 -86 -3 -125 18 l-45 23 140 12 c210 19 384
82 580 212 110 73 290 226 368 313 l59 64 -37 6 c-49 8 -87 63 -71 104 9 24
19 18 69 -42 l48 -56 68 69 c99 101 100 104 45 145 -25 19 -53 47 -61 64 -15
28 -15 30 18 57 43 36 49 35 49 -5 0 -31 49 -117 66 -117 11 0 174 154 174
164 0 7 -13 20 -30 29 -47 28 -105 121 -94 151 7 17 84 70 91 62 3 -3 0 -19
-7 -35 -7 -17 -10 -41 -6 -53 6 -24 77 -108 91 -108 4 0 31 21 59 48 28 26 66
60 85 75 l33 27 -39 43 c-21 23 -49 59 -62 80 -21 35 -22 39 -7 62 48 74 327
208 517 250 87 18 272 19 367 0z m-1632 -122 c-12 -52 -180 -379 -209 -407
-31 -31 -30 6 2 90 27 71 147 288 180 328 21 25 34 19 27 -11z m2682 -73 c67
-39 226 -196 281 -277 89 -134 136 -253 148 -377 9 -97 -13 -85 -53 30 -68
196 -163 343 -313 486 -105 100 -157 168 -129 168 7 0 37 -14 66 -30z m-3568
9 c0 -6 -27 -40 -59 -75 -32 -34 -75 -87 -95 -118 -66 -98 -136 -298 -151
-428 -7 -64 -16 -76 -36 -51 -19 23 -16 133 5 213 26 92 101 242 158 314 46
57 153 156 170 156 5 0 8 -5 8 -11z m-1892 -178 c52 -27 119 -87 139 -125 25
-45 19 -188 -12 -339 -29 -140 -31 -215 -10 -279 23 -66 101 -158 157 -186 47
-23 48 -24 117 -8 79 18 131 21 131 7 0 -17 -53 -48 -121 -72 -95 -33 -129
-21 -226 79 -143 147 -157 201 -118 454 14 92 25 202 25 244 l0 77 -44 43
c-52 50 -119 69 -215 62 -33 -2 -61 -2 -61 2 0 8 57 41 88 50 48 15 112 11
150 -9z m5000 -63 c19 -19 14 -42 -12 -67 l-24 -23 -12 39 c-7 21 -17 44 -23
51 -13 16 54 17 71 0z m61 -142 c8 -9 8 -21 1 -40 -13 -36 -57 -36 -70 0 -14
36 -13 42 13 47 40 8 44 7 56 -7z m-2613 -110 c-45 -127 -175 -312 -241 -343
-66 -31 -56 1 35 112 66 81 100 134 146 226 29 58 79 117 91 105 2 -2 -12 -47
-31 -100z m-2522 54 c93 -86 113 -201 61 -346 l-29 -82 29 -68 c57 -140 138
-287 176 -323 65 -61 154 -109 238 -127 81 -17 107 -33 98 -58 -8 -20 -47 -20
-133 0 -81 18 -112 34 -185 90 -69 55 -112 58 -181 15 -84 -54 -93 -83 -54
-194 13 -37 20 -69 15 -72 -10 -7 -66 66 -85 112 -37 86 0 162 106 218 53 27
71 41 67 54 -12 39 -113 307 -121 320 -11 18 -101 9 -145 -14 -40 -20 -52 -52
-54 -137 -1 -49 -5 -68 -14 -68 -34 0 -45 136 -17 196 12 25 31 40 73 59 112
52 126 61 148 104 64 125 23 277 -81 297 -74 13 -164 -35 -192 -103 -20 -47
-38 -43 -31 8 7 50 49 105 103 136 29 17 55 23 102 23 59 0 65 -2 106 -40z
m4361 -22 c60 -22 78 -37 133 -106 39 -50 54 -92 33 -92 -5 0 -35 27 -67 60
-131 136 -275 148 -374 32 -21 -26 -42 -43 -46 -40 -13 13 18 76 55 112 67 66
154 77 266 34z m1348 -86 c35 -59 80 -139 100 -177 84 -168 119 -351 99 -511
-7 -48 -14 -89 -16 -92 -3 -2 -12 -2 -21 1 -10 5 -15 20 -15 54 0 203 -69 477
-152 606 -27 42 -78 182 -78 215 0 30 23 4 83 -96z m-555 46 c17 -17 15 -48
-2 -48 -8 0 -21 -3 -29 -6 -10 -3 -16 4 -20 23 -7 38 24 58 51 31z m-3665 -75
c-4 -38 -8 -109 -7 -160 0 -88 2 -97 43 -178 23 -47 62 -115 87 -151 48 -70
35 -73 -32 -6 -52 53 -104 141 -121 205 -16 61 -17 236 -2 292 15 60 18 65 29
65 7 0 8 -22 3 -67z m3681 -39 c20 -7 21 -44 3 -69 -18 -23 -34 -13 -42 26 -5
22 -3 34 6 40 17 11 14 10 33 3z m-789 -103 c71 -31 129 -83 156 -138 19 -40
23 -64 24 -143 0 -52 -6 -115 -13 -140 -16 -56 -81 -151 -113 -167 -47 -24
-89 -41 -89 -38 0 2 18 25 40 50 80 92 114 193 108 320 -4 100 -19 126 -99
170 -47 26 -64 30 -134 30 -107 0 -247 -21 -299 -46 -24 -11 -60 -35 -81 -54
-34 -32 -37 -39 -32 -75 3 -22 14 -54 25 -72 l20 -32 12 45 c20 72 36 93 92
124 44 24 68 30 141 33 l88 5 34 -33 c18 -18 45 -59 60 -93 25 -55 27 -68 23
-156 -4 -74 -11 -109 -31 -152 -13 -31 -30 -60 -36 -63 -18 -12 -13 -36 7 -30
9 3 -10 -10 -43 -30 -33 -20 -96 -48 -140 -62 -239 -79 -527 20 -580 200 -30
99 -13 115 34 34 42 -74 95 -122 176 -159 132 -61 294 -49 430 30 116 67 167
256 104 383 -25 50 -69 72 -141 72 -73 -1 -126 -34 -157 -96 -27 -57 -27 -75
4 -121 25 -36 25 -37 5 -37 -29 0 -56 15 -117 66 -83 71 -111 152 -79 228 10
24 30 42 77 68 183 100 400 133 524 79z m770 -135 c0 -30 -5 -41 -27 -54 -37
-22 -43 -11 -19 34 12 21 21 45 21 52 0 8 6 12 13 10 7 -3 12 -21 12 -42z
m511 -98 c26 -51 62 -196 75 -309 7 -62 9 -168 6 -268 -4 -137 -9 -182 -30
-254 -28 -95 -40 -117 -67 -117 -17 0 -17 4 1 87 46 209 45 473 -2 686 -19 89
-24 162 -13 191 8 22 11 21 30 -16z m-3848 -313 c13 -4 21 -9 19 -11 -9 -9
-72 23 -92 46 -19 22 -18 22 15 -2 19 -14 45 -29 58 -33z m3742 -92 c0 -64
-35 -182 -93 -313 -30 -69 -62 -152 -71 -185 -44 -151 -108 -262 -257 -445
-178 -219 -392 -388 -665 -524 -598 -299 -1113 -319 -1748 -67 -169 67 -315
143 -581 301 -123 73 -357 193 -495 253 -385 170 -742 205 -1010 100 -123 -48
-258 -153 -328 -255 -89 -130 -125 -245 -126 -398 0 -218 88 -417 254 -574 89
-83 169 -137 258 -170 120 -45 153 -50 300 -51 78 0 142 -3 142 -6 0 -15 -54
-40 -117 -55 -57 -13 -82 -14 -158 -4 -364 46 -681 361 -745 740 -34 200 35
450 165 602 146 171 343 269 598 298 293 34 682 -84 1182 -357 61 -33 142 -77
180 -98 39 -21 104 -57 145 -80 228 -128 520 -252 680 -289 214 -50 534 -67
710 -38 515 85 943 312 1270 674 125 139 206 258 314 463 33 62 34 66 9 35
-15 -19 -57 -66 -94 -105 -36 -38 -109 -122 -162 -187 -90 -108 -169 -185
-322 -315 -131 -110 -329 -217 -471 -253 -141 -36 -304 -36 -304 -1 0 6 17 13
38 16 133 21 179 31 280 62 136 40 177 60 313 152 185 123 330 265 612 600
106 126 115 143 251 454 29 66 46 73 46 20z m-10 -360 c0 -57 -46 -281 -61
-298 -24 -26 2 254 26 291 18 28 35 31 35 7z m-3435 -293 c50 -17 117 -37 150
-44 51 -10 61 -15 63 -35 4 -23 2 -23 -54 -16 -115 14 -279 84 -292 124 -6 17
12 13 133 -29z m3328 -47 c-5 -98 -53 -275 -101 -372 -45 -92 -124 -182 -143
-163 -11 10 -11 16 0 34 65 104 163 341 185 445 16 75 45 145 56 138 4 -2 5
-39 3 -82z m-336 -440 c-45 -148 -137 -336 -209 -428 -51 -64 -164 -165 -185
-165 -30 0 -20 26 34 88 83 94 144 185 225 336 39 72 86 155 104 183 19 29 35
58 35 65 1 7 4 3 6 -9 2 -12 -2 -43 -10 -70z m-2172 -173 c120 -91 209 -124
491 -185 93 -20 170 -38 172 -39 1 -2 -22 -6 -52 -10 -63 -7 -231 8 -331 31
-92 21 -219 84 -273 136 -38 36 -91 117 -78 117 3 0 35 -23 71 -50z m-1612 -9
c60 -16 107 -43 107 -60 0 -3 -69 -6 -152 -6 -151 0 -154 0 -208 -30 -74 -40
-171 -139 -206 -211 -27 -54 -29 -68 -29 -169 0 -100 3 -116 28 -170 35 -74
107 -144 192 -186 83 -41 204 -51 284 -24 69 22 157 105 202 187 33 62 34 65
34 183 0 102 -3 127 -22 168 -24 51 -105 143 -168 190 l-40 29 45 -7 c50 -8
141 -79 191 -148 81 -111 86 -314 14 -458 -40 -78 -126 -158 -217 -204 l-78
-38 -86 12 c-100 14 -144 29 -236 83 -155 91 -226 231 -216 424 4 67 10 94 38
151 46 93 151 198 248 247 118 59 170 66 275 37z m2294 -68 c74 -18 404 -25
538 -11 l70 8 -43 -21 c-85 -40 -232 -61 -397 -56 -159 5 -218 18 -262 59 -46
43 -18 49 94 21z m1098 -100 c-104 -190 -271 -343 -479 -443 -49 -23 -277 -90
-308 -90 -5 0 -8 9 -8 20 0 24 36 43 208 111 206 81 322 167 528 392 39 42 76
77 83 77 8 0 -2 -27 -24 -67z m-2908 -160 c22 -49 27 -76 31 -169 10 -276 -85
-442 -337 -584 -104 -59 -171 -80 -255 -80 -60 0 -73 3 -83 20 -16 24 -14 25
104 55 175 44 361 155 432 258 52 77 76 175 76 317 0 69 -4 151 -9 183 -6 42
-5 57 3 57 7 0 24 -26 38 -57z m605 43 c20 -7 91 -48 156 -90 158 -101 245
-133 407 -147 103 -9 147 -9 258 5 153 18 347 22 331 6 -6 -6 -73 -24 -150
-41 -128 -29 -155 -31 -339 -33 l-200 -1 -84 32 c-108 42 -215 101 -325 180
-48 35 -99 66 -112 69 -24 6 -30 15 -17 27 9 10 33 8 75 -7z m371 -71 c80 -14
257 -71 257 -82 0 -17 -173 12 -259 43 -149 54 -148 65 2 39z m1537 -4 c0 -13
-50 -44 -58 -36 -4 4 4 15 17 26 25 20 41 24 41 10z m-235 -79 c-39 -33 -170
-125 -215 -150 -154 -85 -363 -142 -510 -141 -105 2 -144 9 -148 30 -4 21 25
29 108 29 169 0 415 77 575 178 56 36 124 61 165 62 19 0 30 -4 25 -8z"/>
<path d="M6495 5873 c-34 -9 -35 -16 -17 -92 l17 -74 80 -1 c44 -1 87 -5 95
-9 12 -6 15 3 17 48 1 30 10 69 18 86 9 17 14 34 10 37 -8 8 -192 13 -220 5z"/>
<path d="M6293 5829 c-51 -16 -93 -35 -93 -42 0 -7 14 -41 30 -76 25 -51 33
-62 48 -56 9 4 46 16 81 26 35 10 66 21 69 24 3 3 0 28 -6 56 -7 28 -12 61
-12 75 0 30 -3 29 -117 -7z"/>
<path d="M6770 5826 c-11 -19 -23 -57 -27 -84 l-5 -49 77 -27 c81 -29 105 -28
105 1 0 10 14 33 30 52 17 18 30 39 30 46 0 11 -47 35 -153 80 l-36 15 -21
-34z"/>
<path d="M6107 5762 c-10 -10 -46 -33 -82 -51 -68 -35 -83 -56 -64 -93 15 -30
70 -88 83 -88 7 0 122 71 155 96 2 2 -6 18 -17 36 -11 18 -26 52 -33 76 -14
47 -19 50 -42 24z"/>
</g>
</svg>
